<svg xmlns="http://www.w3.org/2000/svg" xmlns:xlink="http://www.w3.org/1999/xlink" width="500" zoomAndPan="magnify" viewBox="0 0 375 374.999991" height="500" preserveAspectRatio="xMidYMid meet" version="1.0"><defs><g/><clipPath id="3cd366538f"><path d="M 86.683594 20.039062 L 288.128906 20.039062 L 288.128906 221.484375 L 86.683594 221.484375 Z M 86.683594 20.039062 " clip-rule="nonzero"/></clipPath></defs><g fill="#000000" fill-opacity="1"><g transform="translate(14.749342, 290.611874)"><g><path d="M 17.472656 1.492188 C 27.246094 1.492188 32.792969 -4.140625 32.792969 -13.914062 L 32.792969 -58.714844 L 22.441406 -58.714844 L 22.441406 -14.328125 C 22.441406 -9.6875 20.371094 -6.957031 16.976562 -6.957031 C 13.085938 -6.957031 10.683594 -10.683594 10.515625 -16.976562 L 1.324219 -13.664062 C 1.90625 -4.058594 7.785156 1.492188 17.472656 1.492188 Z M 17.472656 1.492188 "/></g></g></g><g fill="#000000" fill-opacity="1"><g transform="translate(51.267676, 290.611874)"><g><path d="M 14.242188 0.910156 C 19.296875 0.910156 23.683594 -1.574219 25.753906 -5.960938 L 25.835938 -5.960938 L 26.832031 0 L 34.699219 0 L 34.699219 -42.152344 L 25.421875 -42.152344 L 25.421875 -15.320312 C 25.421875 -9.855469 22.609375 -6.707031 17.804688 -6.707031 C 14.492188 -6.707031 12.503906 -8.777344 12.503906 -12.503906 L 12.503906 -42.152344 L 3.230469 -42.152344 L 3.230469 -11.179688 C 3.230469 -3.476562 7.453125 0.910156 14.242188 0.910156 Z M 14.242188 0.910156 "/></g></g></g><g fill="#000000" fill-opacity="1"><g transform="translate(89.524976, 290.611874)"><g><path d="M 13.5 0.828125 C 18.632812 0.828125 22.773438 -1.65625 25.175781 -6.128906 L 25.257812 -6.128906 L 25.503906 -5.300781 C 26.332031 -1.65625 29.148438 0.828125 33.621094 0.828125 C 36.601562 0.828125 39.914062 -0.164062 42.152344 -2.566406 L 39.667969 -8.199219 C 38.425781 -6.875 37.429688 -6.460938 36.4375 -6.460938 C 35.195312 -6.460938 34.449219 -7.371094 34.449219 -9.109375 L 34.449219 -27.824219 C 34.449219 -37.183594 28.652344 -43.308594 18.882812 -43.308594 C 9.191406 -43.308594 2.734375 -37.265625 2.648438 -28.902344 L 11.097656 -26.914062 C 11.179688 -32.128906 14.078125 -36.023438 18.714844 -36.023438 C 22.609375 -36.023438 25.421875 -33.539062 25.421875 -29.230469 C 25.421875 -26.746094 24.097656 -25.503906 22.277344 -25.339844 L 16.976562 -24.679688 C 6.707031 -23.519531 1.324219 -18.46875 1.324219 -10.929688 C 1.324219 -3.644531 6.375 0.828125 13.5 0.828125 Z M 16.976562 -6.460938 C 13.332031 -6.460938 10.683594 -8.53125 10.683594 -11.925781 C 10.683594 -15.484375 13.5 -18.054688 19.128906 -18.882812 L 25.175781 -19.542969 L 25.175781 -16.976562 C 25.175781 -10.683594 21.695312 -6.460938 16.976562 -6.460938 Z M 16.976562 -6.460938 "/></g></g></g><g fill="#000000" fill-opacity="1"><g transform="translate(131.674252, 290.611874)"><g><path d="M 24.015625 -43.0625 C 18.964844 -43.0625 14.574219 -40.578125 12.503906 -36.1875 L 12.421875 -36.1875 L 11.429688 -42.152344 L 3.5625 -42.152344 L 3.5625 0 L 12.835938 0 L 12.835938 -26.832031 C 12.835938 -32.296875 15.652344 -35.441406 20.453125 -35.441406 C 23.765625 -35.441406 25.753906 -33.371094 25.753906 -29.644531 L 25.753906 0 L 35.027344 0 L 35.027344 -30.972656 C 35.027344 -38.671875 30.804688 -43.0625 24.015625 -43.0625 Z M 24.015625 -43.0625 "/></g></g></g><g fill="#000000" fill-opacity="1"><g transform="translate(169.931551, 290.611874)"><g><path d="M 27.410156 1.492188 C 39.996094 1.492188 49.105469 -7.617188 51.09375 -22.359375 L 41.40625 -24.179688 C 39.914062 -13.828125 34.613281 -7.617188 27.410156 -7.617188 C 18.300781 -7.617188 12.835938 -15.734375 12.835938 -29.316406 C 12.835938 -42.980469 17.640625 -51.261719 25.671875 -51.261719 C 31.632812 -51.261719 35.855469 -46.042969 37.265625 -36.769531 L 46.953125 -38.507812 C 45.050781 -52.253906 37.097656 -60.203125 25.753906 -60.203125 C 11.34375 -60.203125 2.484375 -48.445312 2.484375 -29.316406 C 2.484375 -10.1875 11.84375 1.492188 27.410156 1.492188 Z M 27.410156 1.492188 "/></g></g></g><g fill="#000000" fill-opacity="1"><g transform="translate(222.349019, 290.611874)"><g><path d="M 4.390625 0 L 22.277344 0 C 39.914062 0 48.941406 -10.765625 48.941406 -29.316406 C 48.941406 -47.863281 39.914062 -58.714844 22.359375 -58.714844 L 4.390625 -58.714844 Z M 14.492188 -8.613281 L 14.492188 -50.101562 L 22.195312 -50.101562 C 33.289062 -50.101562 38.671875 -42.398438 38.671875 -29.316406 C 38.671875 -16.230469 33.289062 -8.613281 22.195312 -8.613281 Z M 14.492188 -8.613281 "/></g></g></g><g fill="#000000" fill-opacity="1"><g transform="translate(273.855585, 290.611874)"><g><path d="M 4.390625 0 L 36.601562 0 L 36.601562 -8.613281 L 14.410156 -8.613281 L 14.410156 -26.332031 L 32.460938 -26.332031 L 32.460938 -34.117188 L 14.410156 -34.117188 L 14.410156 -50.101562 L 35.773438 -50.101562 L 35.773438 -58.714844 L 4.390625 -58.714844 Z M 4.390625 0 "/></g></g></g><g fill="#000000" fill-opacity="1"><g transform="translate(312.278486, 290.611874)"><g><path d="M 17.226562 0 L 30.804688 0 L 47.285156 -58.714844 L 36.519531 -58.714844 L 24.097656 -10.433594 L 23.933594 -10.433594 L 11.429688 -58.714844 L 0.664062 -58.714844 Z M 17.226562 0 "/></g></g></g><g fill="#008080" fill-opacity="1"><g transform="translate(44.77113, 343.211702)"><g><path d="M 9.667969 -8.058594 C 14.875 -8.058594 18.230469 -10.84375 18.230469 -15.8125 C 18.230469 -19.910156 15.980469 -23.671875 9.667969 -23.671875 L 4.734375 -23.671875 C 3.324219 -23.671875 2.113281 -22.5625 2.113281 -21.253906 L 2.113281 -1.914062 C 2.113281 -0.703125 3.222656 0.300781 4.464844 0.300781 C 5.742188 0.300781 6.816406 -0.738281 6.816406 -1.914062 L 6.816406 -8.058594 Z M 6.816406 -19.40625 L 9.667969 -19.40625 C 12.824219 -19.40625 13.53125 -17.59375 13.53125 -15.847656 C 13.53125 -13.429688 12.1875 -12.320312 9.667969 -12.320312 L 6.816406 -12.320312 Z M 6.816406 -19.40625 "/></g></g></g><g fill="#008080" fill-opacity="1"><g transform="translate(64.882181, 343.211702)"><g><path d="M 10.039062 -12.960938 C 11.316406 -12.890625 12.390625 -13.765625 12.390625 -15.074219 C 12.390625 -16.214844 11.75 -17.089844 9.636719 -17.089844 C 8.5625 -17.089844 7.015625 -16.550781 5.472656 -15.644531 C 5.003906 -16.25 4.398438 -16.6875 3.691406 -16.6875 C 2.484375 -16.6875 1.410156 -15.878906 1.410156 -14.671875 C 1.410156 -14.167969 1.613281 -13.898438 1.878906 -13.5625 C 2.148438 -13.160156 2.25 -12.757812 2.25 -11.984375 L 2.25 -1.847656 C 2.25 -0.671875 3.257812 0.234375 4.566406 0.234375 C 5.875 0.234375 6.882812 -0.671875 6.882812 -1.847656 L 6.882812 -11.984375 C 6.882812 -12.1875 6.847656 -12.390625 6.816406 -12.625 C 7.992188 -13.09375 8.59375 -13.027344 10.039062 -12.960938 Z M 10.039062 -12.960938 "/></g></g></g><g fill="#008080" fill-opacity="1"><g transform="translate(78.513376, 343.211702)"><g><path d="M 8.796875 0.234375 C 13.5625 0.234375 16.082031 -2.484375 16.082031 -6.011719 L 16.082031 -11.011719 C 16.082031 -14.539062 13.5625 -17.257812 8.796875 -17.257812 C 4.027344 -17.257812 1.511719 -14.539062 1.511719 -11.011719 L 1.511719 -6.011719 C 1.511719 -2.484375 4.027344 0.234375 8.796875 0.234375 Z M 8.796875 -3.726562 C 7.050781 -3.726562 6.144531 -4.601562 6.144531 -6.011719 L 6.144531 -11.046875 C 6.144531 -12.421875 7.050781 -13.296875 8.796875 -13.296875 C 10.542969 -13.296875 11.449219 -12.421875 11.449219 -11.046875 L 11.449219 -6.011719 C 11.449219 -4.601562 10.542969 -3.726562 8.796875 -3.726562 Z M 8.796875 -3.726562 "/></g></g></g><g fill="#008080" fill-opacity="1"><g transform="translate(97.080009, 343.211702)"><g><path d="M 1.175781 2.6875 C 1.175781 6.042969 4.230469 8.125 8.628906 8.125 C 13.195312 8.125 16.519531 5.910156 16.519531 2.351562 C 16.519531 -1.207031 13.160156 -2.820312 8.796875 -2.820312 L 7.386719 -2.820312 C 6.984375 -2.820312 6.445312 -2.953125 6.445312 -3.894531 C 6.445312 -4.128906 6.480469 -4.230469 6.648438 -4.667969 C 7.253906 -4.53125 7.957031 -4.5 8.496094 -4.5 C 13.394531 -4.5 15.710938 -7.152344 15.710938 -10.609375 L 15.710938 -12.488281 C 15.710938 -13.429688 16.046875 -13.730469 17.222656 -14.773438 C 17.457031 -14.972656 17.761719 -15.410156 17.761719 -15.980469 C 17.761719 -17.089844 16.71875 -17.929688 15.578125 -17.929688 C 14.636719 -17.929688 13.53125 -17.324219 12.625 -16.082031 C 11.179688 -16.789062 9.835938 -17.222656 8.125 -17.222656 C 3.828125 -17.222656 1.410156 -14.46875 1.410156 -10.84375 C 1.410156 -8.996094 2.113281 -7.421875 3.558594 -6.210938 C 2.855469 -5.339844 2.617188 -4.53125 2.617188 -3.761719 C 2.617188 -3.054688 2.785156 -1.949219 3.324219 -1.007812 C 1.746094 0.269531 1.175781 1.375 1.175781 2.6875 Z M 11.078125 -12.925781 L 11.078125 -10.574219 C 11.078125 -9.066406 10.308594 -8.125 8.628906 -8.125 C 6.816406 -8.125 6.042969 -9.164062 6.042969 -10.777344 C 6.042969 -12.523438 6.984375 -13.496094 8.695312 -13.496094 C 9.46875 -13.496094 10.207031 -13.296875 11.078125 -12.925781 Z M 8.863281 0.972656 C 10.945312 0.972656 11.886719 1.445312 11.886719 2.449219 C 11.886719 3.625 10.609375 4.332031 8.695312 4.332031 C 6.75 4.332031 5.808594 3.59375 5.808594 2.351562 C 5.808594 1.8125 6.011719 1.445312 6.414062 0.941406 Z M 8.863281 0.972656 "/></g></g></g><g fill="#008080" fill-opacity="1"><g transform="translate(115.948798, 343.211702)"><g><path d="M 10.039062 -12.960938 C 11.316406 -12.890625 12.390625 -13.765625 12.390625 -15.074219 C 12.390625 -16.214844 11.75 -17.089844 9.636719 -17.089844 C 8.5625 -17.089844 7.015625 -16.550781 5.472656 -15.644531 C 5.003906 -16.25 4.398438 -16.6875 3.691406 -16.6875 C 2.484375 -16.6875 1.410156 -15.878906 1.410156 -14.671875 C 1.410156 -14.167969 1.613281 -13.898438 1.878906 -13.5625 C 2.148438 -13.160156 2.25 -12.757812 2.25 -11.984375 L 2.25 -1.847656 C 2.25 -0.671875 3.257812 0.234375 4.566406 0.234375 C 5.875 0.234375 6.882812 -0.671875 6.882812 -1.847656 L 6.882812 -11.984375 C 6.882812 -12.1875 6.847656 -12.390625 6.816406 -12.625 C 7.992188 -13.09375 8.59375 -13.027344 10.039062 -12.960938 Z M 10.039062 -12.960938 "/></g></g></g><g fill="#008080" fill-opacity="1"><g transform="translate(129.579993, 343.211702)"><g><path d="M 15.109375 -10.273438 C 15.109375 -14.804688 13.128906 -17.222656 8.257812 -17.222656 C 5.472656 -17.222656 2.519531 -16.417969 2.519531 -14.4375 C 2.519531 -13.597656 3.054688 -12.488281 4.464844 -12.488281 C 5.101562 -12.488281 5.472656 -12.726562 5.742188 -12.824219 C 6.414062 -13.128906 6.984375 -13.363281 7.921875 -13.363281 C 9.636719 -13.363281 10.476562 -12.625 10.476562 -11.046875 L 10.476562 -9.972656 C 9.601562 -10.238281 8.730469 -10.308594 7.824219 -10.308594 C 3.390625 -10.308594 1.175781 -8.59375 1.175781 -5.171875 L 1.175781 -5.070312 C 1.175781 -1.878906 3.257812 0.234375 7.152344 0.234375 C 9.03125 0.234375 10.441406 -0.269531 11.683594 -1.277344 C 12.457031 -0.203125 13.296875 0.132812 14.539062 0.132812 C 16.316406 0.132812 16.953125 -0.539062 16.953125 -1.613281 C 16.953125 -2.316406 16.6875 -2.6875 16.183594 -2.886719 C 15.613281 -3.121094 15.109375 -3.023438 15.109375 -4.027344 Z M 8.089844 -7.050781 C 8.761719 -7.050781 9.636719 -6.949219 10.476562 -6.78125 L 10.476562 -4.363281 C 9.601562 -3.691406 8.730469 -3.492188 7.855469 -3.492188 C 6.414062 -3.492188 5.773438 -3.929688 5.773438 -5.035156 L 5.773438 -5.136719 C 5.773438 -6.144531 6.144531 -7.050781 8.089844 -7.050781 Z M 8.089844 -7.050781 "/></g></g></g><g fill="#008080" fill-opacity="1"><g transform="translate(148.079463, 343.211702)"><g><path d="M 20.648438 -1.847656 C 20.648438 -0.703125 21.421875 0.203125 22.964844 0.203125 C 24.507812 0.203125 25.28125 -0.703125 25.28125 -1.847656 L 25.28125 -11.214844 C 25.28125 -14.804688 22.832031 -17.222656 18.867188 -17.222656 C 17.054688 -17.222656 15.613281 -16.71875 13.800781 -15.746094 C 12.589844 -16.71875 11.316406 -17.222656 9.90625 -17.222656 C 8.460938 -17.222656 6.882812 -16.6875 5.371094 -15.746094 C 4.933594 -16.316406 4.363281 -16.6875 3.59375 -16.6875 C 2.449219 -16.6875 1.410156 -15.914062 1.410156 -14.707031 C 1.410156 -14.335938 1.511719 -14.066406 1.980469 -13.429688 C 2.113281 -13.226562 2.25 -13.128906 2.25 -12.019531 L 2.25 -1.847656 C 2.25 -0.703125 3.023438 0.203125 4.566406 0.203125 C 6.109375 0.203125 6.882812 -0.703125 6.882812 -1.847656 L 6.882812 -12.019531 C 6.882812 -12.121094 6.882812 -12.289062 6.847656 -12.390625 C 7.855469 -12.890625 8.863281 -13.261719 9.703125 -13.261719 C 11.179688 -13.261719 11.449219 -12.085938 11.449219 -10.542969 L 11.449219 -1.847656 C 11.449219 -0.703125 12.222656 0.203125 13.765625 0.203125 C 15.308594 0.203125 16.082031 -0.703125 16.082031 -1.847656 L 16.082031 -11.214844 C 16.082031 -11.515625 16.046875 -11.785156 16.015625 -12.085938 C 16.921875 -12.824219 17.828125 -13.261719 18.699219 -13.261719 C 19.941406 -13.261719 20.648438 -12.320312 20.648438 -11.148438 Z M 20.648438 -1.847656 "/></g></g></g><g fill="#008080" fill-opacity="1"><g transform="translate(176.516952, 343.211702)"><g><path d="M 20.648438 -1.847656 C 20.648438 -0.703125 21.421875 0.203125 22.964844 0.203125 C 24.507812 0.203125 25.28125 -0.703125 25.28125 -1.847656 L 25.28125 -11.214844 C 25.28125 -14.804688 22.832031 -17.222656 18.867188 -17.222656 C 17.054688 -17.222656 15.613281 -16.71875 13.800781 -15.746094 C 12.589844 -16.71875 11.316406 -17.222656 9.90625 -17.222656 C 8.460938 -17.222656 6.882812 -16.6875 5.371094 -15.746094 C 4.933594 -16.316406 4.363281 -16.6875 3.59375 -16.6875 C 2.449219 -16.6875 1.410156 -15.914062 1.410156 -14.707031 C 1.410156 -14.335938 1.511719 -14.066406 1.980469 -13.429688 C 2.113281 -13.226562 2.25 -13.128906 2.25 -12.019531 L 2.25 -1.847656 C 2.25 -0.703125 3.023438 0.203125 4.566406 0.203125 C 6.109375 0.203125 6.882812 -0.703125 6.882812 -1.847656 L 6.882812 -12.019531 C 6.882812 -12.121094 6.882812 -12.289062 6.847656 -12.390625 C 7.855469 -12.890625 8.863281 -13.261719 9.703125 -13.261719 C 11.179688 -13.261719 11.449219 -12.085938 11.449219 -10.542969 L 11.449219 -1.847656 C 11.449219 -0.703125 12.222656 0.203125 13.765625 0.203125 C 15.308594 0.203125 16.082031 -0.703125 16.082031 -1.847656 L 16.082031 -11.214844 C 16.082031 -11.515625 16.046875 -11.785156 16.015625 -12.085938 C 16.921875 -12.824219 17.828125 -13.261719 18.699219 -13.261719 C 19.941406 -13.261719 20.648438 -12.320312 20.648438 -11.148438 Z M 20.648438 -1.847656 "/></g></g></g><g fill="#008080" fill-opacity="1"><g transform="translate(204.954427, 343.211702)"><g><path d="M 7.386719 -21.621094 C 7.386719 -22.898438 6.246094 -23.972656 4.765625 -23.972656 C 3.289062 -23.972656 2.148438 -22.929688 2.148438 -21.621094 C 2.148438 -20.347656 3.289062 -19.273438 4.765625 -19.273438 C 6.246094 -19.273438 7.386719 -20.3125 7.386719 -21.621094 Z M 7.085938 -15.074219 C 7.085938 -16.183594 6.078125 -17.121094 4.765625 -17.121094 C 3.457031 -17.121094 2.449219 -16.183594 2.449219 -15.074219 L 2.449219 -1.847656 C 2.449219 -0.671875 3.457031 0.234375 4.765625 0.234375 C 6.078125 0.234375 7.085938 -0.671875 7.085938 -1.847656 Z M 7.085938 -15.074219 "/></g></g></g><g fill="#008080" fill-opacity="1"><g transform="translate(215.496779, 343.211702)"><g><path d="M 6.882812 -11.984375 C 6.882812 -12.1875 6.847656 -12.390625 6.816406 -12.625 C 7.855469 -13.09375 8.695312 -13.328125 9.402344 -13.328125 C 10.742188 -13.328125 11.582031 -12.289062 11.582031 -10.609375 L 11.582031 -1.847656 C 11.582031 -0.703125 12.421875 0.203125 13.898438 0.203125 C 15.378906 0.203125 16.214844 -0.703125 16.214844 -1.847656 L 16.214844 -10.609375 C 16.214844 -14.539062 14.101562 -17.15625 9.871094 -17.15625 C 8.527344 -17.15625 6.949219 -16.71875 5.4375 -15.710938 C 4.96875 -16.316406 4.363281 -16.6875 3.660156 -16.6875 C 2.382812 -16.6875 1.410156 -15.847656 1.410156 -14.738281 C 1.410156 -14.300781 1.511719 -14.066406 1.980469 -13.429688 C 2.113281 -13.226562 2.25 -13.128906 2.25 -12.019531 L 2.25 -1.847656 C 2.25 -0.703125 3.023438 0.203125 4.566406 0.203125 C 6.109375 0.203125 6.882812 -0.703125 6.882812 -1.847656 Z M 6.882812 -11.984375 "/></g></g></g><g fill="#008080" fill-opacity="1"><g transform="translate(234.902765, 343.211702)"><g><path d="M 1.175781 2.6875 C 1.175781 6.042969 4.230469 8.125 8.628906 8.125 C 13.195312 8.125 16.519531 5.910156 16.519531 2.351562 C 16.519531 -1.207031 13.160156 -2.820312 8.796875 -2.820312 L 7.386719 -2.820312 C 6.984375 -2.820312 6.445312 -2.953125 6.445312 -3.894531 C 6.445312 -4.128906 6.480469 -4.230469 6.648438 -4.667969 C 7.253906 -4.53125 7.957031 -4.5 8.496094 -4.5 C 13.394531 -4.5 15.710938 -7.152344 15.710938 -10.609375 L 15.710938 -12.488281 C 15.710938 -13.429688 16.046875 -13.730469 17.222656 -14.773438 C 17.457031 -14.972656 17.761719 -15.410156 17.761719 -15.980469 C 17.761719 -17.089844 16.71875 -17.929688 15.578125 -17.929688 C 14.636719 -17.929688 13.53125 -17.324219 12.625 -16.082031 C 11.179688 -16.789062 9.835938 -17.222656 8.125 -17.222656 C 3.828125 -17.222656 1.410156 -14.46875 1.410156 -10.84375 C 1.410156 -8.996094 2.113281 -7.421875 3.558594 -6.210938 C 2.855469 -5.339844 2.617188 -4.53125 2.617188 -3.761719 C 2.617188 -3.054688 2.785156 -1.949219 3.324219 -1.007812 C 1.746094 0.269531 1.175781 1.375 1.175781 2.6875 Z M 11.078125 -12.925781 L 11.078125 -10.574219 C 11.078125 -9.066406 10.308594 -8.125 8.628906 -8.125 C 6.816406 -8.125 6.042969 -9.164062 6.042969 -10.777344 C 6.042969 -12.523438 6.984375 -13.496094 8.695312 -13.496094 C 9.46875 -13.496094 10.207031 -13.296875 11.078125 -12.925781 Z M 8.863281 0.972656 C 10.945312 0.972656 11.886719 1.445312 11.886719 2.449219 C 11.886719 3.625 10.609375 4.332031 8.695312 4.332031 C 6.75 4.332031 5.808594 3.59375 5.808594 2.351562 C 5.808594 1.8125 6.011719 1.445312 6.414062 0.941406 Z M 8.863281 0.972656 "/></g></g></g><g fill="#008080" fill-opacity="1"><g transform="translate(253.771549, 343.211702)"><g/></g></g><g fill="#008080" fill-opacity="1"><g transform="translate(264.817522, 343.211702)"><g><path d="M 6.78125 -12.792969 C 7.488281 -13.429688 8.425781 -13.730469 9.5 -13.730469 C 11.148438 -13.730469 11.816406 -13.027344 11.816406 -11.816406 L 11.816406 -5.675781 C 11.816406 -4.265625 11.011719 -3.390625 9.332031 -3.390625 C 7.753906 -3.390625 6.78125 -4.164062 6.78125 -5.40625 Z M 2.148438 -5.40625 C 2.148438 -2.25 4.765625 0.234375 9.300781 0.234375 C 14.066406 0.234375 16.453125 -2.484375 16.453125 -6.011719 L 16.453125 -11.648438 C 16.453125 -14.804688 14.707031 -17.222656 10.441406 -17.222656 C 8.863281 -17.222656 7.855469 -16.886719 6.78125 -16.285156 L 6.78125 -22.191406 C 6.78125 -23.265625 5.941406 -24.242188 4.464844 -24.242188 C 2.988281 -24.242188 2.148438 -23.265625 2.148438 -22.191406 Z M 2.148438 -5.40625 "/></g></g></g><g fill="#008080" fill-opacity="1"><g transform="translate(283.753468, 343.211702)"><g><path d="M 5.371094 0.234375 C 6.949219 0.234375 7.890625 -0.371094 7.890625 -1.578125 C 7.890625 -2.214844 7.621094 -2.382812 7.285156 -2.753906 C 6.816406 -3.257812 6.78125 -3.425781 6.78125 -4.128906 L 6.78125 -22.160156 C 6.78125 -23.335938 5.773438 -24.242188 4.464844 -24.242188 C 3.15625 -24.242188 2.148438 -23.265625 2.148438 -22.160156 L 2.148438 -3.726562 C 2.148438 -0.203125 4.027344 0.234375 5.371094 0.234375 Z M 5.371094 0.234375 "/></g></g></g><g fill="#008080" fill-opacity="1"><g transform="translate(293.725062, 343.211702)"><g><path d="M 8.796875 0.234375 C 13.5625 0.234375 16.082031 -2.484375 16.082031 -6.011719 L 16.082031 -11.011719 C 16.082031 -14.539062 13.5625 -17.257812 8.796875 -17.257812 C 4.027344 -17.257812 1.511719 -14.539062 1.511719 -11.011719 L 1.511719 -6.011719 C 1.511719 -2.484375 4.027344 0.234375 8.796875 0.234375 Z M 8.796875 -3.726562 C 7.050781 -3.726562 6.144531 -4.601562 6.144531 -6.011719 L 6.144531 -11.046875 C 6.144531 -12.421875 7.050781 -13.296875 8.796875 -13.296875 C 10.542969 -13.296875 11.449219 -12.421875 11.449219 -11.046875 L 11.449219 -6.011719 C 11.449219 -4.601562 10.542969 -3.726562 8.796875 -3.726562 Z M 8.796875 -3.726562 "/></g></g></g><g fill="#008080" fill-opacity="1"><g transform="translate(312.291688, 343.211702)"><g><path d="M 1.175781 2.6875 C 1.175781 6.042969 4.230469 8.125 8.628906 8.125 C 13.195312 8.125 16.519531 5.910156 16.519531 2.351562 C 16.519531 -1.207031 13.160156 -2.820312 8.796875 -2.820312 L 7.386719 -2.820312 C 6.984375 -2.820312 6.445312 -2.953125 6.445312 -3.894531 C 6.445312 -4.128906 6.480469 -4.230469 6.648438 -4.667969 C 7.253906 -4.53125 7.957031 -4.5 8.496094 -4.5 C 13.394531 -4.5 15.710938 -7.152344 15.710938 -10.609375 L 15.710938 -12.488281 C 15.710938 -13.429688 16.046875 -13.730469 17.222656 -14.773438 C 17.457031 -14.972656 17.761719 -15.410156 17.761719 -15.980469 C 17.761719 -17.089844 16.71875 -17.929688 15.578125 -17.929688 C 14.636719 -17.929688 13.53125 -17.324219 12.625 -16.082031 C 11.179688 -16.789062 9.835938 -17.222656 8.125 -17.222656 C 3.828125 -17.222656 1.410156 -14.46875 1.410156 -10.84375 C 1.410156 -8.996094 2.113281 -7.421875 3.558594 -6.210938 C 2.855469 -5.339844 2.617188 -4.53125 2.617188 -3.761719 C 2.617188 -3.054688 2.785156 -1.949219 3.324219 -1.007812 C 1.746094 0.269531 1.175781 1.375 1.175781 2.6875 Z M 11.078125 -12.925781 L 11.078125 -10.574219 C 11.078125 -9.066406 10.308594 -8.125 8.628906 -8.125 C 6.816406 -8.125 6.042969 -9.164062 6.042969 -10.777344 C 6.042969 -12.523438 6.984375 -13.496094 8.695312 -13.496094 C 9.46875 -13.496094 10.207031 -13.296875 11.078125 -12.925781 Z M 8.863281 0.972656 C 10.945312 0.972656 11.886719 1.445312 11.886719 2.449219 C 11.886719 3.625 10.609375 4.332031 8.695312 4.332031 C 6.75 4.332031 5.808594 3.59375 5.808594 2.351562 C 5.808594 1.8125 6.011719 1.445312 6.414062 0.941406 Z M 8.863281 0.972656 "/></g></g></g><g clip-path="url(#3cd366538f)"><path fill="#008080" d="M 209.855469 20.039062 C 166.628906 20.039062 131.402344 55.265625 131.402344 98.492188 C 131.402344 117.238281 138.914062 133.796875 149.941406 147.3125 L 86.628906 210.628906 L 97.722656 221.722656 L 161.035156 158.40625 C 174.554688 169.433594 191.113281 176.949219 209.855469 176.949219 C 253.085938 176.949219 288.3125 141.71875 288.3125 98.492188 C 288.3125 55.265625 253.085938 20.039062 209.855469 20.039062 Z M 209.855469 35.726562 C 244.597656 35.726562 272.621094 63.75 272.621094 98.492188 C 272.621094 133.234375 244.597656 161.257812 209.855469 161.257812 C 175.117188 161.257812 147.09375 133.234375 147.09375 98.492188 C 147.09375 63.75 175.117188 35.726562 209.855469 35.726562 Z M 186.582031 69.929688 L 162.785156 98.492188 L 186.582031 127.054688 L 198.640625 117.003906 L 183.210938 98.492188 L 198.640625 79.980469 Z M 233.226562 69.929688 L 221.164062 79.980469 L 236.597656 98.492188 L 221.164062 117.003906 L 233.226562 127.054688 L 257.039062 98.492188 Z M 233.226562 69.929688 " fill-opacity="1" fill-rule="nonzero"/></g></svg>